<svg width="56" height="56" xmlns="http://www.w3.org/2000/svg" xmlns:xlink="http://www.w3.org/1999/xlink">
 <symbol viewBox="-35.249 -31.501 70.498 63.002" id="Cart">
  <path id="svg_1" d="m31.75,-10.001l-49.251,0.002l0,2.428l45.232,5.988c2.418,0.389 4.086,2.292 4.154,4.74l0,14.926c-0.01,2.492 -2.01,4.49 -4.5,4.5l-44.887,0l0,3.417c-0.012,3.046 -2.451,5.486 -5.5,5.5l-8.749,0c-1.933,0 -3.499,-1.569 -3.499,-3.501c0,-1.933 1.566,-3.499 3.499,-3.499l7.249,0l0,-36c0.015,-3.048 2.453,-5.487 5.5,-5.499l50.752,0c1.933,0 3.499,1.566 3.499,3.498c0,1.933 -1.566,3.5 -3.499,3.5zm-29.558,10.081l-8.597,-1.139l0,18.641l8.597,0l0,-17.502zm4.001,17.502l8.596,0l0,-15.834l-8.596,-1.138l0,16.972zm20.692,-14.232l-8.096,-1.072l0,15.305l8.096,0l0,-14.233zm-37.288,14.232l0,-19.17l-7.098,-0.94l0,20.11l7.098,0z" fill="#00c800"/>
  <path id="svg_2" d="m-8.583,-17.667c-3.82,0 -6.916,-3.098 -6.916,-6.916c0,-3.82 3.096,-6.918 6.916,-6.918s6.917,3.098 6.917,6.918c0,3.818 -3.097,6.916 -6.917,6.916z" fill="#00c800"/>
  <path id="svg_3" d="m24.751,-17.667c-3.82,0 -6.917,-3.098 -6.917,-6.916c0,-3.82 3.097,-6.918 6.917,-6.918s6.916,3.098 6.916,6.918c0,3.818 -3.096,6.916 -6.916,6.916z" fill="#00c800"/>
 </symbol>
 <g>
  <use id="svg_4" transform="matrix(0.7028944720745085,0,0,-0.7028944720745085,28.66120804069514,27.110353753662434) " y="-31.501" x="-35.249" height="63.002" width="70.498" xlink:href="#Cart"/>
 </g>
</svg>