<svg width="56" height="56" xmlns="http://www.w3.org/2000/svg">
  <g id="cart">
   <path fill="#00c800" d="m51.372204,4.938135c-0.074116,0.001058 -0.150401,0.007607 -0.223273,0.020672l-0.004101,0l-7.359316,1.256872c-0.468046,0.080304 -0.860428,0.401252 -1.033612,0.843427a0.334598,0.334598 0 0 0 0,0.004128l-3.415053,8.756759l-33.327771,0.831024c-0.38328,0.009579 -0.743063,0.182691 -0.992267,0.471327s-0.36911,0.672481 -0.3225,1.054284l1.839836,15.2189c0.075902,0.638507 0.603431,1.144838 1.244475,1.194855l23.760661,1.889442l4.709129,3.704465a0.334598,0.334598 0 0 0 0.016538,0.012397c0.005027,0.003493 0.011378,0.004829 0.016538,0.008269s0.010716,0.008626 0.016538,0.012397c0.859396,0.641473 1.07239,1.5154 0.950936,2.001072c-0.069207,0.276749 -0.174864,0.480079 -0.425855,0.636705s-0.684559,0.269975 -1.426378,0.227395a0.334598,0.334598 0 0 0 -0.008335,0c-0.023828,-0.000794 -0.050579,-0.000529 -0.074407,0l-0.012436,0l-28.3375,0.082689l-0.004101,0c-0.744703,-0.00475 -1.371459,0.619859 -1.368495,1.364368s0.632127,1.366805 1.376777,1.356099l0.004101,0l2.071351,-0.004128c-0.769629,0.490611 -1.285806,1.348842 -1.285806,2.323559c0,1.516018 1.241684,2.757676 2.75767,2.757676s2.757683,-1.241658 2.757683,-2.757676c0,-0.97999 -0.51754,-1.846731 -1.294075,-2.335963l23.334819,-0.066151c-0.840715,0.473976 -1.413994,1.373786 -1.413994,2.402114c0,1.516018 1.241657,2.757676 2.757683,2.757676s2.757683,-1.241658 2.757683,-2.757676c0,-1.316608 -0.935324,-2.426514 -2.174732,-2.695659c1.171868,-0.414551 2.072092,-1.269393 2.629508,-2.575761a0.334598,0.334598 0 0 0 0.020679,-0.049613c0.427336,-1.708855 -0.33061,-3.566754 -1.893577,-4.775286a0.334598,0.334598 0 0 0 -0.012436,-0.012397c-0.003837,-0.002937 -0.004498,-0.009473 -0.008203,-0.012397a0.334598,0.334598 0 0 0 -0.045486,-0.045479l-3.336505,-2.617105l10.40641,-26.65478l6.602719,-1.12457l0.004101,0c0.693621,-0.111512 1.200882,-0.757982 1.141107,-1.45946c-0.059867,-0.702814 -0.672241,-1.254043 -1.376764,-1.244469l0.00004,0zm-13.040059,12.982164l-1.918383,4.919992l-2.501334,0l0,-4.808362l4.419717,-0.11163zm-5.374781,0.136437l0,4.783555l-4.618171,0l0,-4.667791l4.618171,-0.115765zm-5.573235,0.136437l0,4.647118l-4.618171,0l0,-4.531354l4.618171,-0.115765zm-5.573235,0.140571l0,4.506547l-4.618171,0l0,-4.390783l4.618171,-0.115765zm-5.573235,0.140571l0,4.365976l-4.618171,0l0,-4.250212l4.618171,-0.115765zm-5.573235,0.136437l0,4.229539l-3.386106,0l-0.500275,-4.130313l3.88638,-0.099227zm-3.270341,5.180462l3.270341,0l0,4.320497l-2.749401,0l-0.52094,-4.320497zm4.225405,0l4.618171,0l0,4.320497l-4.618171,0l0,-4.320497zm5.573235,0l4.618171,0l0,4.320497l-4.618171,0l0,-4.320497zm5.573235,0l4.618171,0l0,4.320497l-4.618171,0l0,-4.320497zm5.573235,0l4.618171,0l0,4.320497l-4.618171,0l0,-4.320497zm5.573235,0l2.133375,0l-1.686854,4.320497l-0.44652,0l0,-4.320497zm-25.881638,5.27142l2.633636,0l0,3.100835l-2.282215,-0.181916l-0.351421,-2.91892zm3.5887,0l4.618171,0l0,3.543221l-4.618171,-0.367966l0,-3.175255zm5.573235,0l4.618171,0l0,3.985607l-4.618171,-0.363831l0,-3.621776zm5.573235,0l4.618171,0l0,4.432127l-4.618171,-0.367966l0,-4.064161zm5.573235,0l4.618171,0l0,2.629508l-0.876503,2.245005c-0.11378,-0.055126 -0.237813,-0.08896 -0.363831,-0.099227l-3.377837,-0.268739l0,-4.506547zm5.573235,0l0.070279,0l-0.070279,0.194319l0,-0.194319zm-23.396842,17.521787c0.901124,0 1.620703,0.719598 1.620703,1.620703s-0.719579,1.616569 -1.620703,1.616569s-1.620703,-0.715463 -1.620703,-1.616569s0.719632,-1.620703 1.620703,-1.620703zm26.142115,0c0.901098,0 1.620703,0.719598 1.620703,1.620703s-0.719605,1.616569 -1.620703,1.616569s-1.620703,-0.715463 -1.620703,-1.616569s0.719592,-1.620703 1.620703,-1.620703zm-26.142115,0.769007c-0.489532,0 -0.880631,0.391099 -0.880631,0.880637s0.391099,0.876503 0.880631,0.876503s0.880644,-0.386964 0.880644,-0.876503s-0.391086,-0.880637 -0.880644,-0.880637zm26.142115,0c-0.489545,0 -0.880631,0.391099 -0.880631,0.880637s0.391086,0.876503 0.880631,0.876503s0.880631,-0.386964 0.880631,-0.876503s-0.391099,-0.880637 -0.880631,-0.880637z" id="svg_1"/>
  </g>
</svg>