<svg width="36" height="36" xmlns="http://www.w3.org/2000/svg">

 <g>
  <title>background</title>
  <rect fill="none" id="canvas_background" height="38" width="38" y="-1" x="-1"/>
 </g>
 <g>
  <title>Layer 1</title>
  <g stroke="null" id="cart">
   <path stroke="null" id="svg_1" d="m33.849436,2.934951c-0.049489,0.000708 -0.100434,0.005082 -0.149095,0.01381l-0.002738,0l-4.914414,0.839314c-0.312548,0.053623 -0.574572,0.267947 -0.690225,0.563227a0.22344,0.22344 0 0 0 0,0.002751l-2.280506,5.847598l-22.255653,0.554946c-0.255947,0.006397 -0.496201,0.121997 -0.662619,0.314739s-0.246485,0.449069 -0.215359,0.704035l1.22861,10.162893c0.050685,0.426378 0.402959,0.764502 0.831033,0.797898l15.866919,1.261732l3.144668,2.473775a0.22344,0.22344 0 0 0 0.011045,0.00828c0.003359,0.002331 0.007599,0.003225 0.011045,0.005523s0.007152,0.005756 0.011045,0.008274c0.573884,0.428368 0.716122,1.011955 0.635013,1.336277c-0.04621,0.184808 -0.116768,0.320588 -0.284375,0.425183s-0.457136,0.180281 -0.95251,0.151847a0.22344,0.22344 0 0 0 -0.005569,0c-0.015907,-0.000528 -0.033776,-0.000347 -0.049683,0l-0.008307,0l-18.923246,0.055219l-0.002738,0c-0.497297,-0.003172 -0.915835,0.413931 -0.913858,0.9111s0.422124,0.91273 0.919388,0.905578l0.002738,0l1.383208,-0.002758c-0.513944,0.32762 -0.858633,0.90073 -0.858633,1.551629c0,1.012369 0.82917,1.841526 1.84152,1.841526s1.841526,-0.829157 1.841526,-1.841526c0,-0.654419 -0.345603,-1.233211 -0.864155,-1.55991l15.582544,-0.044174c-0.56141,0.316508 -0.944236,0.917384 -0.944236,1.604084c0,1.012369 0.829157,1.841526 1.841526,1.841526s1.841533,-0.829157 1.841533,-1.841526c0,-0.879207 -0.624596,-1.620377 -1.45225,-1.800111c0.782553,-0.276829 1.383709,-0.847675 1.755937,-1.720044a0.22344,0.22344 0 0 0 0.01381,-0.033129c0.28537,-1.141144 -0.220775,-2.381815 -1.26449,-3.188848a0.22344,0.22344 0 0 0 -0.008307,-0.008274c-0.002564,-0.001963 -0.003005,-0.006331 -0.005476,-0.00828a0.22344,0.22344 0 0 0 -0.030377,-0.030371l-2.228058,-1.747656l6.949203,-17.799557l4.409171,-0.750967l0.002738,0c0.463193,-0.074464 0.801932,-0.506165 0.762012,-0.9746c-0.03998,-0.469323 -0.448909,-0.837424 -0.919374,-0.831027l0.000027,0l-0.000007,-0.000007zm-8.707898,8.669247l-1.281064,3.285476l-1.670341,0l0,-3.210932l2.951405,-0.074544zm-3.589183,0.091112l0,3.194364l-3.083926,0l0,-3.117062l3.083926,-0.077309l0,0.000007zm-3.721697,0.091105l0,3.103259l-3.083926,0l0,-3.02595l3.083926,-0.077309zm-3.721704,0.09387l0,3.009389l-3.083926,0l0,-2.93208l3.083926,-0.077309zm-3.721697,0.093877l0,2.915512l-3.083926,0l0,-2.83821l3.083926,-0.077309l0,0.000007zm-3.721704,0.091105l0,2.824407l-2.261173,0l-0.334078,-2.758143l2.595251,-0.066264zm-2.183871,3.459413l2.183871,0l0,2.885148l-1.835997,0l-0.347874,-2.885148zm2.821649,0l3.083926,0l0,2.885148l-3.083926,0l0,-2.885148zm3.721697,0l3.083926,0l0,2.885148l-3.083926,0l0,-2.885148zm3.721704,0l3.083926,0l0,2.885148l-3.083926,0l0,-2.885148zm3.721697,0l3.083926,0l0,2.885148l-3.083926,0l0,-2.885148zm3.721704,0l1.424624,0l-1.126446,2.885148l-0.298178,0l0,-2.885148zm-17.283269,3.520154l1.758695,0l0,2.070682l-1.524023,-0.121483l-0.234672,-1.949199zm2.396466,0l3.083926,0l0,2.366102l-3.083926,-0.245723l0,-2.120378zm3.721704,0l3.083926,0l0,2.661515l-3.083926,-0.242959l0,-2.418556zm3.721697,0l3.083926,0l0,2.959692l-3.083926,-0.245717l0,-2.713976zm3.721704,0l3.083926,0l0,1.755937l-0.585317,1.499175c-0.07598,-0.036815 -0.158805,-0.059406 -0.242959,-0.066264l-2.255651,-0.179459l0,-3.009389zm3.721697,0l0.046932,0l-0.046932,0.129763l0,-0.129763zm-15.623966,11.700719c0.601751,0 1.082273,0.480535 1.082273,1.082273s-0.480522,1.079515 -1.082273,1.079515s-1.082273,-0.477771 -1.082273,-1.079515s0.480555,-1.082273 1.082273,-1.082273zm17.457206,0c0.601738,0 1.082279,0.480535 1.082279,1.082273s-0.480542,1.079515 -1.082279,1.079515s-1.082273,-0.477771 -1.082273,-1.079515s0.480529,-1.082273 1.082273,-1.082273zm-17.457206,0.51353c-0.326899,0 -0.588068,0.261169 -0.588068,0.588075s0.261169,0.58531 0.588068,0.58531s0.588075,-0.258411 0.588075,-0.58531s-0.261156,-0.588075 -0.588075,-0.588075zm17.457206,0c-0.326906,0 -0.588068,0.261169 -0.588068,0.588075s0.261162,0.58531 0.588068,0.58531s0.588068,-0.258411 0.588068,-0.58531s-0.261162,-0.588075 -0.588068,-0.588075z" fill="#00c800"/>
  </g>
 </g>
</svg>